{
    "accessors": [
        {
            "bufferView": 0,
            "componentType": 5125,
            "count": 357,
            "max": [
                120.0
            ],
            "min": [
                0.0
            ],
            "name": "mesh0_idx_accessor",
            "type": "SCALAR"
        },
        {
            "bufferView": 1,
            "componentType": 5126,
            "count": 121,
            "max": [
                -0.01642950437963009,
                0.06677763164043427,
                0.18512062728405
            ],
            "min": [
                -0.04459335282444954,
                -0.054164331406354904,
                0.184857577085495
            ],
            "name": "mesh0_coord_accessor",
            "type": "VEC3"
        },
        {
            "bufferView": 2,
            "componentType": 5126,
            "count": 121,
            "max": [
                0.11786136031150818,
                0.06959609687328339,
                0.9999992847442627
            ],
            "min": [
                -0.14410308003425598,
                -0.02815418876707554,
                0.9894726872444153
            ],
            "name": "mesh0_norm_accessor",
            "type": "VEC3"
        },
        {
            "bufferView": 3,
            "componentType": 5125,
            "count": 651,
            "max": [
                163.0
            ],
            "min": [
                0.0
            ],
            "name": "mesh1_idx_accessor",
            "type": "SCALAR"
        },
        {
            "bufferView": 4,
            "componentType": 5126,
            "count": 164,
            "max": [
                -0.01642950437963009,
                0.06699526309967041,
                0.1850000023841858
            ],
            "min": [
                -0.0435192845761776,
                -0.05931688845157623,
                0.0925000011920929
            ],
            "name": "mesh1_coord_accessor",
            "type": "VEC3"
        },
        {
            "bufferView": 5,
            "componentType": 5126,
            "count": 164,
            "max": [
                0.9997730255126953,
                0.6716760396957397,
                0.14750148355960846
            ],
            "min": [
                0.7345573306083679,
                -0.36280426383018494,
                -0.120540551841259
            ],
            "name": "mesh1_norm_accessor",
            "type": "VEC3"
        },
        {
            "bufferView": 6,
            "componentType": 5125,
            "count": 711,
            "max": [
                181.0
            ],
            "min": [
                0.0
            ],
            "name": "mesh2_idx_accessor",
            "type": "SCALAR"
        },
        {
            "bufferView": 7,
            "componentType": 5126,
            "count": 182,
            "max": [
                -0.017446545884013176,
                0.06687376648187637,
                0.18512062728405
            ],
            "min": [
                -0.04459335282444954,
                -0.059121884405612946,
                0.0925000011920929
            ],
            "name": "mesh2_coord_accessor",
            "type": "VEC3"
        },
        {
            "bufferView": 8,
            "componentType": 5126,
            "count": 182,
            "max": [
                -0.7345570921897888,
                0.36280426383018494,
                0.12062845379114151
            ],
            "min": [
                -0.9997726082801819,
                -0.6716762781143188,
                -0.14749683439731598
            ],
            "name": "mesh2_norm_accessor",
            "type": "VEC3"
        },
        {
            "bufferView": 9,
            "componentType": 5125,
            "count": 18,
            "max": [
                7.0
            ],
            "min": [
                0.0
            ],
            "name": "mesh3_idx_accessor",
            "type": "SCALAR"
        },
        {
            "bufferView": 10,
            "componentType": 5126,
            "count": 8,
            "max": [
                -0.030403723940253258,
                0.06699526309967041,
                0.1850000023841858
            ],
            "min": [
                -0.04202023521065712,
                0.06674231588840485,
                0.0925000011920929
            ],
            "name": "mesh3_coord_accessor",
            "type": "VEC3"
        },
        {
            "bufferView": 11,
            "componentType": 5126,
            "count": 8,
            "max": [
                0.035099130123853683,
                0.9997693300247192,
                0.006726840045303106
            ],
            "min": [
                -0.12081402540206909,
                0.9926124215126038,
                -0.01213593315333128
            ],
            "name": "mesh3_norm_accessor",
            "type": "VEC3"
        },
        {
            "bufferView": 12,
            "componentType": 5125,
            "count": 18,
            "max": [
                7.0
            ],
            "min": [
                0.0
            ],
            "name": "mesh4_idx_accessor",
            "type": "SCALAR"
        },
        {
            "bufferView": 13,
            "componentType": 5126,
            "count": 8,
            "max": [
                -0.019609954208135605,
                -0.0538015253841877,
                0.18506957590579987
            ],
            "min": [
                -0.02953140065073967,
                -0.05931688845157623,
                0.0925000011920929
            ],
            "name": "mesh4_coord_accessor",
            "type": "VEC3"
        },
        {
            "bufferView": 14,
            "componentType": 5126,
            "count": 8,
            "max": [
                -0.19375698268413544,
                -0.9301148056983948,
                0.08813226222991943
            ],
            "min": [
                -0.35671716928482056,
                -0.9782487154006958,
                0.07324283570051193
            ],
            "name": "mesh4_norm_accessor",
            "type": "VEC3"
        },
        {
            "bufferView": 15,
            "componentType": 5125,
            "count": 315,
            "max": [
                106.0
            ],
            "min": [
                0.0
            ],
            "name": "mesh5_idx_accessor",
            "type": "SCALAR"
        },
        {
            "bufferView": 16,
            "componentType": 5126,
            "count": 107,
            "max": [
                -0.026967395097017288,
                0.06699526309967041,
                0.0925000011920929
            ],
            "min": [
                -0.03792620822787285,
                -0.05931688845157623,
                0.0925000011920929
            ],
            "name": "mesh5_coord_accessor",
            "type": "VEC3"
        },
        {
            "bufferView": 17,
            "componentType": 5126,
            "count": 107,
            "max": [
                -0.0,
                -0.0,
                -1.0
            ],
            "min": [
                -0.0,
                -0.0,
                -1.0
            ],
            "name": "mesh5_norm_accessor",
            "type": "VEC3"
        }
    ],
    "asset": {
        "version": "2.0"
    },
    "bufferViews": [
        {
            "buffer": 0,
            "byteLength": 1428,
            "name": "mesh0_idx_bufferView",
            "target": 34963
        },
        {
            "buffer": 1,
            "byteLength": 1452,
            "name": "mesh0_coord_bufferView",
            "target": 34962
        },
        {
            "buffer": 2,
            "byteLength": 1452,
            "name": "mesh0_norm_bufferView",
            "target": 34962
        },
        {
            "buffer": 3,
            "byteLength": 2604,
            "name": "mesh1_idx_bufferView",
            "target": 34963
        },
        {
            "buffer": 4,
            "byteLength": 1968,
            "name": "mesh1_coord_bufferView",
            "target": 34962
        },
        {
            "buffer": 5,
            "byteLength": 1968,
            "name": "mesh1_norm_bufferView",
            "target": 34962
        },
        {
            "buffer": 6,
            "byteLength": 2844,
            "name": "mesh2_idx_bufferView",
            "target": 34963
        },
        {
            "buffer": 7,
            "byteLength": 2184,
            "name": "mesh2_coord_bufferView",
            "target": 34962
        },
        {
            "buffer": 8,
            "byteLength": 2184,
            "name": "mesh2_norm_bufferView",
            "target": 34962
        },
        {
            "buffer": 9,
            "byteLength": 72,
            "name": "mesh3_idx_bufferView",
            "target": 34963
        },
        {
            "buffer": 10,
            "byteLength": 96,
            "name": "mesh3_coord_bufferView",
            "target": 34962
        },
        {
            "buffer": 11,
            "byteLength": 96,
            "name": "mesh3_norm_bufferView",
            "target": 34962
        },
        {
            "buffer": 12,
            "byteLength": 72,
            "name": "mesh4_idx_bufferView",
            "target": 34963
        },
        {
            "buffer": 13,
            "byteLength": 96,
            "name": "mesh4_coord_bufferView",
            "target": 34962
        },
        {
            "buffer": 14,
            "byteLength": 96,
            "name": "mesh4_norm_bufferView",
            "target": 34962
        },
        {
            "buffer": 15,
            "byteLength": 1260,
            "name": "mesh5_idx_bufferView",
            "target": 34963
        },
        {
            "buffer": 16,
            "byteLength": 1284,
            "name": "mesh5_coord_bufferView",
            "target": 34962
        },
        {
            "buffer": 17,
            "byteLength": 1284,
            "name": "mesh5_norm_bufferView",
            "target": 34962
        }
    ],
    "buffers": [
        {
            "byteLength": 1428,
            "name": "mesh0_idx_buffer",
            "uri": "data:application/octet-stream;base64,"
        },
        {
            "byteLength": 1452,
            "name": "mesh0_coord_buffer",
            "uri": "data:application/octet-stream;base64,"
        },
        {
            "byteLength": 1452,
            "name": "mesh0_norm_buffer",
            "uri": "data:application/octet-stream;base64,"
        },
        {
            "byteLength": 2604,
            "name": "mesh1_idx_buffer",
            "uri": "data:application/octet-stream;base64,"
        },
        {
            "byteLength": 1968,
            "name": "mesh1_coord_buffer",
            "uri": "data:application/octet-stream;base64,"
        },
        {
            "byteLength": 1968,
            "name": "mesh1_norm_buffer",
            "uri": "data:application/octet-stream;base64,"
        },
        {
            "byteLength": 2844,
            "name": "mesh2_idx_buffer",
            "uri": "data:application/octet-stream;base64,"
        },
        {
            "byteLength": 2184,
            "name": "mesh2_coord_buffer",
            "uri": "data:application/octet-stream;base64,"
        },
        {
            "byteLength": 2184,
            "name": "mesh2_norm_buffer",
            "uri": "data:application/octet-stream;base64,"
        },
        {
            "byteLength": 72,
            "name": "mesh3_idx_buffer",
            "uri": "data:application/octet-stream;base64,"
        },
        {
            "byteLength": 96,
            "name": "mesh3_coord_buffer",
            "uri": "data:application/octet-stream;base64,"
        },
        {
            "byteLength": 96,
            "name": "mesh3_norm_buffer",
            "uri": "data:application/octet-stream;base64,"
        },
        {
            "byteLength": 72,
            "name": "mesh4_idx_buffer",
            "uri": "data:application/octet-stream;base64,"
        },
        {
            "byteLength": 96,
            "name": "mesh4_coord_buffer",
            "uri": "data:application/octet-stream;base64,"
        },
        {
            "byteLength": 96,
            "name": "mesh4_norm_buffer",
            "uri": "data:application/octet-stream;base64,"
        },
        {
            "byteLength": 1260,
            "name": "mesh5_idx_buffer",
            "uri": "data:application/octet-stream;base64,"
        },
        {
            "byteLength": 1284,
            "name": "mesh5_coord_buffer",
            "uri": "data:application/octet-stream;base64,"
        },
        {
            "byteLength": 1284,
            "name": "mesh5_norm_buffer",
            "uri": "data:application/octet-stream;base64,"
        }
    ],
    "extensionsUsed": [
        "PTC_onshape_metadata"
    ],
    "materials": [
        {
            "doubleSided": true,
            "name": "0.917647_0.917647_0.917647_0.000000_0.000000",
            "pbrMetallicRoughness": {
                "baseColorFactor": [
                    0.9176470637321472,
                    0.9176470637321472,
                    0.9176470637321472,
                    1.0
                ],
                "metallicFactor": 0.0
            }
        }
    ],
    "meshes": [
        {
            "name": "mesh0_mesh",
            "primitives": [
                {
                    "attributes": {
                        "NORMAL": 2,
                        "POSITION": 1
                    },
                    "indices": 0,
                    "material": 0
                }
            ]
        },
        {
            "name": "mesh1_mesh",
            "primitives": [
                {
                    "attributes": {
                        "NORMAL": 5,
                        "POSITION": 4
                    },
                    "indices": 3,
                    "material": 0
                }
            ]
        },
        {
            "name": "mesh2_mesh",
            "primitives": [
                {
                    "attributes": {
                        "NORMAL": 8,
                        "POSITION": 7
                    },
                    "indices": 6,
                    "material": 0
                }
            ]
        },
        {
            "name": "mesh3_mesh",
            "primitives": [
                {
                    "attributes": {
                        "NORMAL": 11,
                        "POSITION": 10
                    },
                    "indices": 9,
                    "material": 0
                }
            ]
        },
        {
            "name": "mesh4_mesh",
            "primitives": [
                {
                    "attributes": {
                        "NORMAL": 14,
                        "POSITION": 13
                    },
                    "indices": 12,
                    "material": 0
                }
            ]
        },
        {
            "name": "mesh5_mesh",
            "primitives": [
                {
                    "attributes": {
                        "NORMAL": 17,
                        "POSITION": 16
                    },
                    "indices": 15,
                    "material": 0
                }
            ]
        }
    ],
    "nodes": [
        {
            "children": [
                1
            ],
            "name": "Assembly 2"
        },
        {
            "children": [
                2
            ],
            "extensions": {
                "PTC_onshape_metadata": {
                    "id": [
                        "M8FKDh1k1owEltZoZ"
                    ]
                }
            },
            "name": "occurrence of Part 8",
            "translation": [
                0.010566627606749535,
                -0.03970375657081604,
                -0.0922832041978836
            ]
        },
        {
            "children": [
                3,
                5,
                7,
                9,
                11,
                13
            ],
            "extensions": {
                "PTC_onshape_metadata": {
                    "id": [
                        "JOH"
                    ]
                }
            },
            "name": "Part 8"
        },
        {
            "children": [
                4
            ],
            "extensions": {
                "PTC_onshape_metadata": {
                    "id": [
                        "JJO"
                    ]
                }
            },
            "name": "mesh0"
        },
        {
            "mesh": 0,
            "name": "mesh0_meshnode_0"
        },
        {
            "children": [
                6
            ],
            "extensions": {
                "PTC_onshape_metadata": {
                    "id": [
                        "JOm"
                    ]
                }
            },
            "name": "mesh1"
        },
        {
            "mesh": 1,
            "name": "mesh1_meshnode_1"
        },
        {
            "children": [
                8
            ],
            "extensions": {
                "PTC_onshape_metadata": {
                    "id": [
                        "JOe"
                    ]
                }
            },
            "name": "mesh2"
        },
        {
            "mesh": 2,
            "name": "mesh2_meshnode_2"
        },
        {
            "children": [
                10
            ],
            "extensions": {
                "PTC_onshape_metadata": {
                    "id": [
                        "JOW"
                    ]
                }
            },
            "name": "mesh3"
        },
        {
            "mesh": 3,
            "name": "mesh3_meshnode_3"
        },
        {
            "children": [
                12
            ],
            "extensions": {
                "PTC_onshape_metadata": {
                    "id": [
                        "JOO"
                    ]
                }
            },
            "name": "mesh4"
        },
        {
            "mesh": 4,
            "name": "mesh4_meshnode_4"
        },
        {
            "children": [
                14
            ],
            "extensions": {
                "PTC_onshape_metadata": {
                    "id": [
                        "JOC"
                    ]
                }
            },
            "name": "mesh5"
        },
        {
            "mesh": 5,
            "name": "mesh5_meshnode_5"
        }
    ],
    "scene": 0,
    "scenes": [
        {
            "name": "Root",
            "nodes": [
                0
            ]
        }
    ]
}