{
    "accessors": [
        {
            "bufferView": 0,
            "componentType": 5125,
            "count": 534,
            "max": [
                177.0
            ],
            "min": [
                0.0
            ],
            "name": "mesh0_idx_accessor",
            "type": "SCALAR"
        },
        {
            "bufferView": 1,
            "componentType": 5126,
            "count": 178,
            "max": [
                3.5813405513763428,
                0.38076266646385193,
                1.3461999893188477
            ],
            "min": [
                2.8194594383239746,
                -0.38100001215934753,
                0.7365999817848206
            ],
            "name": "mesh0_coord_accessor",
            "type": "VEC3"
        },
        {
            "bufferView": 2,
            "componentType": 5126,
            "count": 178,
            "max": [
                0.9998442530632019,
                0.9993770718574524,
                0.0
            ],
            "min": [
                -0.9998442530632019,
                -1.0,
                0.0
            ],
            "name": "mesh0_norm_accessor",
            "type": "VEC3"
        },
        {
            "bufferView": 3,
            "componentType": 5125,
            "count": 651,
            "max": [
                216.0
            ],
            "min": [
                0.0
            ],
            "name": "mesh1_idx_accessor",
            "type": "SCALAR"
        },
        {
            "bufferView": 4,
            "componentType": 5126,
            "count": 217,
            "max": [
                3.5813405513763428,
                0.38076266646385193,
                0.7365999817848206
            ],
            "min": [
                2.8194594383239746,
                -0.38100001215934753,
                0.4318000078201294
            ],
            "name": "mesh1_coord_accessor",
            "type": "VEC3"
        },
        {
            "bufferView": 5,
            "componentType": 5126,
            "count": 217,
            "max": [
                0.7071067690849304,
                0.7071067690849304,
                -0.7071067690849304
            ],
            "min": [
                -0.7071067690849304,
                -0.7071067690849304,
                -0.7071067690849304
            ],
            "name": "mesh1_norm_accessor",
            "type": "VEC3"
        },
        {
            "bufferView": 6,
            "componentType": 5125,
            "count": 504,
            "max": [
                167.0
            ],
            "min": [
                0.0
            ],
            "name": "mesh2_idx_accessor",
            "type": "SCALAR"
        },
        {
            "bufferView": 7,
            "componentType": 5126,
            "count": 168,
            "max": [
                3.276599884033203,
                0.07620000094175339,
                0.4318000078201294
            ],
            "min": [
                3.1242001056671143,
                -0.07620000094175339,
                0.38199999928474426
            ],
            "name": "mesh2_coord_accessor",
            "type": "VEC3"
        },
        {
            "bufferView": 8,
            "componentType": 5126,
            "count": 168,
            "max": [
                1.0,
                1.0,
                0.0
            ],
            "min": [
                -1.0,
                -1.0,
                0.0
            ],
            "name": "mesh2_norm_accessor",
            "type": "VEC3"
        },
        {
            "bufferView": 9,
            "componentType": 5125,
            "count": 519,
            "max": [
                172.0
            ],
            "min": [
                0.0
            ],
            "name": "mesh3_idx_accessor",
            "type": "SCALAR"
        },
        {
            "bufferView": 10,
            "componentType": 5126,
            "count": 173,
            "max": [
                3.5813405513763428,
                0.38076266646385193,
                1.3461999893188477
            ],
            "min": [
                2.8194594383239746,
                -0.38100001215934753,
                1.3461999893188477
            ],
            "name": "mesh3_coord_accessor",
            "type": "VEC3"
        },
        {
            "bufferView": 11,
            "componentType": 5126,
            "count": 173,
            "max": [
                -0.0,
                -0.0,
                1.0
            ],
            "min": [
                -0.0,
                -0.0,
                1.0
            ],
            "name": "mesh3_norm_accessor",
            "type": "VEC3"
        },
        {
            "bufferView": 12,
            "componentType": 5125,
            "count": 504,
            "max": [
                167.0
            ],
            "min": [
                0.0
            ],
            "name": "mesh4_idx_accessor",
            "type": "SCALAR"
        },
        {
            "bufferView": 13,
            "componentType": 5126,
            "count": 168,
            "max": [
                3.5404000282287598,
                0.3400000035762787,
                1.3461999893188477
            ],
            "min": [
                2.8603999614715576,
                -0.3400000035762787,
                0.753582775592804
            ],
            "name": "mesh4_coord_accessor",
            "type": "VEC3"
        },
        {
            "bufferView": 14,
            "componentType": 5126,
            "count": 168,
            "max": [
                1.0,
                1.0,
                -0.0
            ],
            "min": [
                -1.0,
                -1.0,
                -0.0
            ],
            "name": "mesh4_norm_accessor",
            "type": "VEC3"
        },
        {
            "bufferView": 15,
            "componentType": 5125,
            "count": 588,
            "max": [
                195.0
            ],
            "min": [
                0.0
            ],
            "name": "mesh5_idx_accessor",
            "type": "SCALAR"
        },
        {
            "bufferView": 16,
            "componentType": 5126,
            "count": 196,
            "max": [
                3.5404000282287598,
                0.3400000035762787,
                0.753582775592804
            ],
            "min": [
                2.8603999614715576,
                -0.3400000035762787,
                0.448782742023468
            ],
            "name": "mesh5_coord_accessor",
            "type": "VEC3"
        },
        {
            "bufferView": 17,
            "componentType": 5126,
            "count": 196,
            "max": [
                0.7071067690849304,
                0.7071067690849304,
                0.7071067690849304
            ],
            "min": [
                -0.7071067690849304,
                -0.7071067690849304,
                0.7071067690849304
            ],
            "name": "mesh5_norm_accessor",
            "type": "VEC3"
        },
        {
            "bufferView": 18,
            "componentType": 5125,
            "count": 426,
            "max": [
                141.0
            ],
            "min": [
                0.0
            ],
            "name": "mesh6_idx_accessor",
            "type": "SCALAR"
        },
        {
            "bufferView": 19,
            "componentType": 5126,
            "count": 142,
            "max": [
                3.235599994659424,
                0.03519999980926514,
                0.448782742023468
            ],
            "min": [
                3.1651999950408936,
                -0.03519999980926514,
                0.38199999928474426
            ],
            "name": "mesh6_coord_accessor",
            "type": "VEC3"
        },
        {
            "bufferView": 20,
            "componentType": 5126,
            "count": 142,
            "max": [
                1.0,
                1.0,
                -0.0
            ],
            "min": [
                -1.0,
                -1.0,
                -0.0
            ],
            "name": "mesh6_norm_accessor",
            "type": "VEC3"
        },
        {
            "bufferView": 21,
            "componentType": 5125,
            "count": 210,
            "max": [
                69.0
            ],
            "min": [
                0.0
            ],
            "name": "mesh7_idx_accessor",
            "type": "SCALAR"
        },
        {
            "bufferView": 22,
            "componentType": 5126,
            "count": 70,
            "max": [
                3.276599884033203,
                0.07620000094175339,
                0.38199999928474426
            ],
            "min": [
                3.1242001056671143,
                -0.07620000094175339,
                0.38199999928474426
            ],
            "name": "mesh7_coord_accessor",
            "type": "VEC3"
        },
        {
            "bufferView": 23,
            "componentType": 5126,
            "count": 70,
            "max": [
                0.0,
                0.0,
                -1.0
            ],
            "min": [
                0.0,
                0.0,
                -1.0
            ],
            "name": "mesh7_norm_accessor",
            "type": "VEC3"
        }
    ],
    "asset": {
        "version": "2.0"
    },
    "bufferViews": [
        {
            "buffer": 0,
            "byteLength": 2136,
            "name": "mesh0_idx_bufferView",
            "target": 34963
        },
        {
            "buffer": 1,
            "byteLength": 2136,
            "name": "mesh0_coord_bufferView",
            "target": 34962
        },
        {
            "buffer": 2,
            "byteLength": 2136,
            "name": "mesh0_norm_bufferView",
            "target": 34962
        },
        {
            "buffer": 3,
            "byteLength": 2604,
            "name": "mesh1_idx_bufferView",
            "target": 34963
        },
        {
            "buffer": 4,
            "byteLength": 2604,
            "name": "mesh1_coord_bufferView",
            "target": 34962
        },
        {
            "buffer": 5,
            "byteLength": 2604,
            "name": "mesh1_norm_bufferView",
            "target": 34962
        },
        {
            "buffer": 6,
            "byteLength": 2016,
            "name": "mesh2_idx_bufferView",
            "target": 34963
        },
        {
            "buffer": 7,
            "byteLength": 2016,
            "name": "mesh2_coord_bufferView",
            "target": 34962
        },
        {
            "buffer": 8,
            "byteLength": 2016,
            "name": "mesh2_norm_bufferView",
            "target": 34962
        },
        {
            "buffer": 9,
            "byteLength": 2076,
            "name": "mesh3_idx_bufferView",
            "target": 34963
        },
        {
            "buffer": 10,
            "byteLength": 2076,
            "name": "mesh3_coord_bufferView",
            "target": 34962
        },
        {
            "buffer": 11,
            "byteLength": 2076,
            "name": "mesh3_norm_bufferView",
            "target": 34962
        },
        {
            "buffer": 12,
            "byteLength": 2016,
            "name": "mesh4_idx_bufferView",
            "target": 34963
        },
        {
            "buffer": 13,
            "byteLength": 2016,
            "name": "mesh4_coord_bufferView",
            "target": 34962
        },
        {
            "buffer": 14,
            "byteLength": 2016,
            "name": "mesh4_norm_bufferView",
            "target": 34962
        },
        {
            "buffer": 15,
            "byteLength": 2352,
            "name": "mesh5_idx_bufferView",
            "target": 34963
        },
        {
            "buffer": 16,
            "byteLength": 2352,
            "name": "mesh5_coord_bufferView",
            "target": 34962
        },
        {
            "buffer": 17,
            "byteLength": 2352,
            "name": "mesh5_norm_bufferView",
            "target": 34962
        },
        {
            "buffer": 18,
            "byteLength": 1704,
            "name": "mesh6_idx_bufferView",
            "target": 34963
        },
        {
            "buffer": 19,
            "byteLength": 1704,
            "name": "mesh6_coord_bufferView",
            "target": 34962
        },
        {
            "buffer": 20,
            "byteLength": 1704,
            "name": "mesh6_norm_bufferView",
            "target": 34962
        },
        {
            "buffer": 21,
            "byteLength": 840,
            "name": "mesh7_idx_bufferView",
            "target": 34963
        },
        {
            "buffer": 22,
            "byteLength": 840,
            "name": "mesh7_coord_bufferView",
            "target": 34962
        },
        {
            "buffer": 23,
            "byteLength": 840,
            "name": "mesh7_norm_bufferView",
            "target": 34962
        }
    ],
    "buffers": [
        {
            "byteLength": 2136,
            "name": "mesh0_idx_buffer",
            "uri": "data:application/octet-stream;base64,"
        },
        {
            "byteLength": 2136,
            "name": "mesh0_coord_buffer",
            "uri": "data:application/octet-stream;base64,"
        },
        {
            "byteLength": 2136,
            "name": "mesh0_norm_buffer",
            "uri": "data:application/octet-stream;base64,"
        },
        {
            "byteLength": 2604,
            "name": "mesh1_idx_buffer",
            "uri": "data:application/octet-stream;base64,"
        },
        {
            "byteLength": 2604,
            "name": "mesh1_coord_buffer",
            "uri": "data:application/octet-stream;base64,"
        },
        {
            "byteLength": 2604,
            "name": "mesh1_norm_buffer",
            "uri": "data:application/octet-stream;base64,"
        },
        {
            "byteLength": 2016,
            "name": "mesh2_idx_buffer",
            "uri": "data:application/octet-stream;base64,"
        },
        {
            "byteLength": 2016,
            "name": "mesh2_coord_buffer",
            "uri": "data:application/octet-stream;base64,"
        },
        {
            "byteLength": 2016,
            "name": "mesh2_norm_buffer",
            "uri": "data:application/octet-stream;base64,"
        },
        {
            "byteLength": 2076,
            "name": "mesh3_idx_buffer",
            "uri": "data:application/octet-stream;base64,"
        },
        {
            "byteLength": 2076,
            "name": "mesh3_coord_buffer",
            "uri": "data:application/octet-stream;base64,"
        },
        {
            "byteLength": 2076,
            "name": "mesh3_norm_buffer",
            "uri": "data:application/octet-stream;base64,"
        },
        {
            "byteLength": 2016,
            "name": "mesh4_idx_buffer",
            "uri": "data:application/octet-stream;base64,"
        },
        {
            "byteLength": 2016,
            "name": "mesh4_coord_buffer",
            "uri": "data:application/octet-stream;base64,"
        },
        {
            "byteLength": 2016,
            "name": "mesh4_norm_buffer",
            "uri": "data:application/octet-stream;base64,"
        },
        {
            "byteLength": 2352,
            "name": "mesh5_idx_buffer",
            "uri": "data:application/octet-stream;base64,"
        },
        {
            "byteLength": 2352,
            "name": "mesh5_coord_buffer",
            "uri": "data:application/octet-stream;base64,"
        },
        {
            "byteLength": 2352,
            "name": "mesh5_norm_buffer",
            "uri": "data:application/octet-stream;base64,"
        },
        {
            "byteLength": 1704,
            "name": "mesh6_idx_buffer",
            "uri": "data:application/octet-stream;base64,"
        },
        {
            "byteLength": 1704,
            "name": "mesh6_coord_buffer",
            "uri": "data:application/octet-stream;base64,"
        },
        {
            "byteLength": 1704,
            "name": "mesh6_norm_buffer",
            "uri": "data:application/octet-stream;base64,"
        },
        {
            "byteLength": 840,
            "name": "mesh7_idx_buffer",
            "uri": "data:application/octet-stream;base64,"
        },
        {
            "byteLength": 840,
            "name": "mesh7_coord_buffer",
            "uri": "data:application/octet-stream;base64,"
        },
        {
            "byteLength": 840,
            "name": "mesh7_norm_buffer",
            "uri": "data:application/octet-stream;base64,"
        }
    ],
    "extensionsUsed": [
        "PTC_onshape_metadata"
    ],
    "materials": [
        {
            "doubleSided": true,
            "name": "0.752941_0.752941_0.752941_0.000000_0.000000",
            "pbrMetallicRoughness": {
                "baseColorFactor": [
                    0.7529411911964417,
                    0.7529411911964417,
                    0.7529411911964417,
                    1.0
                ],
                "metallicFactor": 0.0
            }
        },
        {
            "doubleSided": true,
            "name": "1.000000_1.000000_1.000000_0.000000_0.000000",
            "pbrMetallicRoughness": {
                "metallicFactor": 0.0
            }
        }
    ],
    "meshes": [
        {
            "name": "mesh0_mesh",
            "primitives": [
                {
                    "attributes": {
                        "NORMAL": 2,
                        "POSITION": 1
                    },
                    "indices": 0,
                    "material": 0
                }
            ]
        },
        {
            "name": "mesh1_mesh",
            "primitives": [
                {
                    "attributes": {
                        "NORMAL": 5,
                        "POSITION": 4
                    },
                    "indices": 3,
                    "material": 0
                }
            ]
        },
        {
            "name": "mesh2_mesh",
            "primitives": [
                {
                    "attributes": {
                        "NORMAL": 8,
                        "POSITION": 7
                    },
                    "indices": 6,
                    "material": 0
                }
            ]
        },
        {
            "name": "mesh3_mesh",
            "primitives": [
                {
                    "attributes": {
                        "NORMAL": 11,
                        "POSITION": 10
                    },
                    "indices": 9,
                    "material": 0
                }
            ]
        },
        {
            "name": "mesh4_mesh",
            "primitives": [
                {
                    "attributes": {
                        "NORMAL": 14,
                        "POSITION": 13
                    },
                    "indices": 12,
                    "material": 1
                }
            ]
        },
        {
            "name": "mesh5_mesh",
            "primitives": [
                {
                    "attributes": {
                        "NORMAL": 17,
                        "POSITION": 16
                    },
                    "indices": 15,
                    "material": 1
                }
            ]
        },
        {
            "name": "mesh6_mesh",
            "primitives": [
                {
                    "attributes": {
                        "NORMAL": 20,
                        "POSITION": 19
                    },
                    "indices": 18,
                    "material": 1
                }
            ]
        },
        {
            "name": "mesh7_mesh",
            "primitives": [
                {
                    "attributes": {
                        "NORMAL": 23,
                        "POSITION": 22
                    },
                    "indices": 21,
                    "material": 1
                }
            ]
        }
    ],
    "nodes": [
        {
            "children": [
                1,
                3,
                5,
                7,
                9,
                11,
                13,
                15
            ],
            "extensions": {
                "PTC_onshape_metadata": {
                    "id": [
                        "JLD"
                    ]
                }
            },
            "name": "Part 2"
        },
        {
            "children": [
                2
            ],
            "extensions": {
                "PTC_onshape_metadata": {
                    "id": [
                        "KFCD"
                    ]
                }
            },
            "name": "mesh0"
        },
        {
            "mesh": 0,
            "name": "mesh0_meshnode_0"
        },
        {
            "children": [
                4
            ],
            "extensions": {
                "PTC_onshape_metadata": {
                    "id": [
                        "KFGD"
                    ]
                }
            },
            "name": "mesh1"
        },
        {
            "mesh": 1,
            "name": "mesh1_meshnode_1"
        },
        {
            "children": [
                6
            ],
            "extensions": {
                "PTC_onshape_metadata": {
                    "id": [
                        "JLO"
                    ]
                }
            },
            "name": "mesh2"
        },
        {
            "mesh": 2,
            "name": "mesh2_meshnode_2"
        },
        {
            "children": [
                8
            ],
            "extensions": {
                "PTC_onshape_metadata": {
                    "id": [
                        "KGmG"
                    ]
                }
            },
            "name": "mesh3"
        },
        {
            "mesh": 3,
            "name": "mesh3_meshnode_3"
        },
        {
            "children": [
                10
            ],
            "extensions": {
                "PTC_onshape_metadata": {
                    "id": [
                        "JGm"
                    ]
                }
            },
            "name": "mesh4"
        },
        {
            "mesh": 4,
            "name": "mesh4_meshnode_4"
        },
        {
            "children": [
                12
            ],
            "extensions": {
                "PTC_onshape_metadata": {
                    "id": [
                        "JGq"
                    ]
                }
            },
            "name": "mesh5"
        },
        {
            "mesh": 5,
            "name": "mesh5_meshnode_5"
        },
        {
            "children": [
                14
            ],
            "extensions": {
                "PTC_onshape_metadata": {
                    "id": [
                        "JL6"
                    ]
                }
            },
            "name": "mesh6"
        },
        {
            "mesh": 6,
            "name": "mesh6_meshnode_6"
        },
        {
            "children": [
                16
            ],
            "extensions": {
                "PTC_onshape_metadata": {
                    "id": [
                        "JLK"
                    ]
                }
            },
            "name": "mesh7"
        },
        {
            "mesh": 7,
            "name": "mesh7_meshnode_7"
        }
    ],
    "scene": 0,
    "scenes": [
        {
            "name": "Root",
            "nodes": [
                0
            ]
        }
    ]
}