{
    "accessors": [
        {
            "bufferView": 0,
            "componentType": 5125,
            "count": 21,
            "max": [
                8.0
            ],
            "min": [
                0.0
            ],
            "name": "mesh0_idx_accessor",
            "type": "SCALAR"
        },
        {
            "bufferView": 1,
            "componentType": 5126,
            "count": 9,
            "max": [
                -0.028547147288918495,
                -0.059121884405612946,
                0.0925000011920929
            ],
            "min": [
                -0.0384790413081646,
                -0.06446944177150726,
                4.494527666709658e-11
            ],
            "name": "mesh0_coord_accessor",
            "type": "VEC3"
        },
        {
            "bufferView": 2,
            "componentType": 5126,
            "count": 9,
            "max": [
                -0.03654445707798004,
                -0.9781782627105713,
                0.07500381022691727
            ],
            "min": [
                -0.19407454133033752,
                -0.9975763559341431,
                0.059114228934049606
            ],
            "name": "mesh0_norm_accessor",
            "type": "VEC3"
        },
        {
            "bufferView": 3,
            "componentType": 5125,
            "count": 702,
            "max": [
                176.0
            ],
            "min": [
                0.0
            ],
            "name": "mesh1_idx_accessor",
            "type": "SCALAR"
        },
        {
            "bufferView": 4,
            "componentType": 5126,
            "count": 177,
            "max": [
                -0.017526281997561455,
                0.06706245988607407,
                0.0925000011920929
            ],
            "min": [
                -0.040472086519002914,
                -0.06442729383707047,
                -0.000152706285007298
            ],
            "name": "mesh1_coord_accessor",
            "type": "VEC3"
        },
        {
            "bufferView": 5,
            "componentType": 5126,
            "count": 177,
            "max": [
                -0.8212997317314148,
                0.5597349405288696,
                0.11922429502010345
            ],
            "min": [
                -0.9998486638069153,
                -0.4672870934009552,
                -0.15366217494010925
            ],
            "name": "mesh1_norm_accessor",
            "type": "VEC3"
        },
        {
            "bufferView": 6,
            "componentType": 5125,
            "count": 12,
            "max": [
                5.0
            ],
            "min": [
                0.0
            ],
            "name": "mesh2_idx_accessor",
            "type": "SCALAR"
        },
        {
            "bufferView": 7,
            "componentType": 5126,
            "count": 6,
            "max": [
                -0.019780071452260017,
                0.06724821031093597,
                0.0925000011920929
            ],
            "min": [
                -0.03140287846326828,
                0.06687376648187637,
                -0.0001126158531405963
            ],
            "name": "mesh2_coord_accessor",
            "type": "VEC3"
        },
        {
            "bufferView": 8,
            "componentType": 5126,
            "count": 6,
            "max": [
                -0.12058849632740021,
                0.9926283955574036,
                -0.011161163449287415
            ],
            "min": [
                -0.18484267592430115,
                0.9825931787490845,
                -0.019032631069421768
            ],
            "name": "mesh2_norm_accessor",
            "type": "VEC3"
        },
        {
            "bufferView": 9,
            "componentType": 5125,
            "count": 702,
            "max": [
                174.0
            ],
            "min": [
                0.0
            ],
            "name": "mesh3_idx_accessor",
            "type": "SCALAR"
        },
        {
            "bufferView": 10,
            "componentType": 5126,
            "count": 175,
            "max": [
                -0.01654702052474022,
                0.06724821031093597,
                0.0925000011920929
            ],
            "min": [
                -0.03946920856833458,
                -0.06446944177150726,
                0.0
            ],
            "name": "mesh3_coord_accessor",
            "type": "VEC3"
        },
        {
            "bufferView": 11,
            "componentType": 5126,
            "count": 175,
            "max": [
                0.9998799562454224,
                0.46758246421813965,
                0.15366217494010925
            ],
            "min": [
                0.8202461004257202,
                -0.5608547329902649,
                -0.11928196251392365
            ],
            "name": "mesh3_norm_accessor",
            "type": "VEC3"
        },
        {
            "bufferView": 12,
            "componentType": 5125,
            "count": 336,
            "max": [
                113.0
            ],
            "min": [
                0.0
            ],
            "name": "mesh4_idx_accessor",
            "type": "SCALAR"
        },
        {
            "bufferView": 13,
            "componentType": 5126,
            "count": 114,
            "max": [
                -0.01654702052474022,
                0.06724821031093597,
                0.00011545584857231006
            ],
            "min": [
                -0.040472086519002914,
                -0.06446944177150726,
                -0.000152706285007298
            ],
            "name": "mesh4_coord_accessor",
            "type": "VEC3"
        },
        {
            "bufferView": 14,
            "componentType": 5126,
            "count": 114,
            "max": [
                0.14849980175495148,
                0.021608280017971992,
                -0.9881242513656616
            ],
            "min": [
                -0.11646907031536102,
                -0.0750449001789093,
                -0.9999675750732422
            ],
            "name": "mesh4_norm_accessor",
            "type": "VEC3"
        },
        {
            "bufferView": 15,
            "componentType": 5125,
            "count": 333,
            "max": [
                112.0
            ],
            "min": [
                0.0
            ],
            "name": "mesh5_idx_accessor",
            "type": "SCALAR"
        },
        {
            "bufferView": 16,
            "componentType": 5126,
            "count": 113,
            "max": [
                -0.026967395097017288,
                0.06699526309967041,
                0.0925000011920929
            ],
            "min": [
                -0.03792620822787285,
                -0.05931688845157623,
                0.0925000011920929
            ],
            "name": "mesh5_coord_accessor",
            "type": "VEC3"
        },
        {
            "bufferView": 17,
            "componentType": 5126,
            "count": 113,
            "max": [
                0.0,
                0.0,
                1.0
            ],
            "min": [
                0.0,
                0.0,
                1.0
            ],
            "name": "mesh5_norm_accessor",
            "type": "VEC3"
        }
    ],
    "asset": {
        "version": "2.0"
    },
    "bufferViews": [
        {
            "buffer": 0,
            "byteLength": 84,
            "name": "mesh0_idx_bufferView",
            "target": 34963
        },
        {
            "buffer": 1,
            "byteLength": 108,
            "name": "mesh0_coord_bufferView",
            "target": 34962
        },
        {
            "buffer": 2,
            "byteLength": 108,
            "name": "mesh0_norm_bufferView",
            "target": 34962
        },
        {
            "buffer": 3,
            "byteLength": 2808,
            "name": "mesh1_idx_bufferView",
            "target": 34963
        },
        {
            "buffer": 4,
            "byteLength": 2124,
            "name": "mesh1_coord_bufferView",
            "target": 34962
        },
        {
            "buffer": 5,
            "byteLength": 2124,
            "name": "mesh1_norm_bufferView",
            "target": 34962
        },
        {
            "buffer": 6,
            "byteLength": 48,
            "name": "mesh2_idx_bufferView",
            "target": 34963
        },
        {
            "buffer": 7,
            "byteLength": 72,
            "name": "mesh2_coord_bufferView",
            "target": 34962
        },
        {
            "buffer": 8,
            "byteLength": 72,
            "name": "mesh2_norm_bufferView",
            "target": 34962
        },
        {
            "buffer": 9,
            "byteLength": 2808,
            "name": "mesh3_idx_bufferView",
            "target": 34963
        },
        {
            "buffer": 10,
            "byteLength": 2100,
            "name": "mesh3_coord_bufferView",
            "target": 34962
        },
        {
            "buffer": 11,
            "byteLength": 2100,
            "name": "mesh3_norm_bufferView",
            "target": 34962
        },
        {
            "buffer": 12,
            "byteLength": 1344,
            "name": "mesh4_idx_bufferView",
            "target": 34963
        },
        {
            "buffer": 13,
            "byteLength": 1368,
            "name": "mesh4_coord_bufferView",
            "target": 34962
        },
        {
            "buffer": 14,
            "byteLength": 1368,
            "name": "mesh4_norm_bufferView",
            "target": 34962
        },
        {
            "buffer": 15,
            "byteLength": 1332,
            "name": "mesh5_idx_bufferView",
            "target": 34963
        },
        {
            "buffer": 16,
            "byteLength": 1356,
            "name": "mesh5_coord_bufferView",
            "target": 34962
        },
        {
            "buffer": 17,
            "byteLength": 1356,
            "name": "mesh5_norm_bufferView",
            "target": 34962
        }
    ],
    "buffers": [
        {
            "byteLength": 84,
            "name": "mesh0_idx_buffer",
            "uri": "data:application/octet-stream;base64,"
        },
        {
            "byteLength": 108,
            "name": "mesh0_coord_buffer",
            "uri": "data:application/octet-stream;base64,"
        },
        {
            "byteLength": 108,
            "name": "mesh0_norm_buffer",
            "uri": "data:application/octet-stream;base64,"
        },
        {
            "byteLength": 2808,
            "name": "mesh1_idx_buffer",
            "uri": "data:application/octet-stream;base64,"
        },
        {
            "byteLength": 2124,
            "name": "mesh1_coord_buffer",
            "uri": "data:application/octet-stream;base64,"
        },
        {
            "byteLength": 2124,
            "name": "mesh1_norm_buffer",
            "uri": "data:application/octet-stream;base64,"
        },
        {
            "byteLength": 48,
            "name": "mesh2_idx_buffer",
            "uri": "data:application/octet-stream;base64,"
        },
        {
            "byteLength": 72,
            "name": "mesh2_coord_buffer",
            "uri": "data:application/octet-stream;base64,"
        },
        {
            "byteLength": 72,
            "name": "mesh2_norm_buffer",
            "uri": "data:application/octet-stream;base64,"
        },
        {
            "byteLength": 2808,
            "name": "mesh3_idx_buffer",
            "uri": "data:application/octet-stream;base64,"
        },
        {
            "byteLength": 2100,
            "name": "mesh3_coord_buffer",
            "uri": "data:application/octet-stream;base64,"
        },
        {
            "byteLength": 2100,
            "name": "mesh3_norm_buffer",
            "uri": "data:application/octet-stream;base64,"
        },
        {
            "byteLength": 1344,
            "name": "mesh4_idx_buffer",
            "uri": "data:application/octet-stream;base64,"
        },
        {
            "byteLength": 1368,
            "name": "mesh4_coord_buffer",
            "uri": "data:application/octet-stream;base64,"
        },
        {
            "byteLength": 1368,
            "name": "mesh4_norm_buffer",
            "uri": "data:application/octet-stream;base64,"
        },
        {
            "byteLength": 1332,
            "name": "mesh5_idx_buffer",
            "uri": "data:application/octet-stream;base64,"
        },
        {
            "byteLength": 1356,
            "name": "mesh5_coord_buffer",
            "uri": "data:application/octet-stream;base64,"
        },
        {
            "byteLength": 1356,
            "name": "mesh5_norm_buffer",
            "uri": "data:application/octet-stream;base64,"
        }
    ],
    "extensionsUsed": [
        "PTC_onshape_metadata"
    ],
    "materials": [
        {
            "doubleSided": true,
            "name": "0.917647_0.917647_0.917647_0.000000_0.000000",
            "pbrMetallicRoughness": {
                "baseColorFactor": [
                    0.9176470637321472,
                    0.9176470637321472,
                    0.9176470637321472,
                    1.0
                ],
                "metallicFactor": 0.0
            }
        }
    ],
    "meshes": [
        {
            "name": "mesh0_mesh",
            "primitives": [
                {
                    "attributes": {
                        "NORMAL": 2,
                        "POSITION": 1
                    },
                    "indices": 0,
                    "material": 0
                }
            ]
        },
        {
            "name": "mesh1_mesh",
            "primitives": [
                {
                    "attributes": {
                        "NORMAL": 5,
                        "POSITION": 4
                    },
                    "indices": 3,
                    "material": 0
                }
            ]
        },
        {
            "name": "mesh2_mesh",
            "primitives": [
                {
                    "attributes": {
                        "NORMAL": 8,
                        "POSITION": 7
                    },
                    "indices": 6,
                    "material": 0
                }
            ]
        },
        {
            "name": "mesh3_mesh",
            "primitives": [
                {
                    "attributes": {
                        "NORMAL": 11,
                        "POSITION": 10
                    },
                    "indices": 9,
                    "material": 0
                }
            ]
        },
        {
            "name": "mesh4_mesh",
            "primitives": [
                {
                    "attributes": {
                        "NORMAL": 14,
                        "POSITION": 13
                    },
                    "indices": 12,
                    "material": 0
                }
            ]
        },
        {
            "name": "mesh5_mesh",
            "primitives": [
                {
                    "attributes": {
                        "NORMAL": 17,
                        "POSITION": 16
                    },
                    "indices": 15,
                    "material": 0
                }
            ]
        }
    ],
    "nodes": [
        {
            "children": [
                1
            ],
            "name": "Assembly 2"
        },
        {
            "children": [
                2
            ],
            "extensions": {
                "PTC_onshape_metadata": {
                    "id": [
                        "MoaTRHdoP8pDeGEVI"
                    ]
                }
            },
            "name": "occurrence of Part 7",
            "translation": [
                0.010566627606749535,
                -0.03970375657081604,
                -0.0922832041978836
            ]
        },
        {
            "children": [
                3,
                5,
                7,
                9,
                11,
                13
            ],
            "extensions": {
                "PTC_onshape_metadata": {
                    "id": [
                        "JOD"
                    ]
                }
            },
            "name": "Part 7"
        },
        {
            "children": [
                4
            ],
            "extensions": {
                "PTC_onshape_metadata": {
                    "id": [
                        "JOK"
                    ]
                }
            },
            "name": "mesh0"
        },
        {
            "mesh": 0,
            "name": "mesh0_meshnode_0"
        },
        {
            "children": [
                6
            ],
            "extensions": {
                "PTC_onshape_metadata": {
                    "id": [
                        "JOa"
                    ]
                }
            },
            "name": "mesh1"
        },
        {
            "mesh": 1,
            "name": "mesh1_meshnode_1"
        },
        {
            "children": [
                8
            ],
            "extensions": {
                "PTC_onshape_metadata": {
                    "id": [
                        "JOS"
                    ]
                }
            },
            "name": "mesh2"
        },
        {
            "mesh": 2,
            "name": "mesh2_meshnode_2"
        },
        {
            "children": [
                10
            ],
            "extensions": {
                "PTC_onshape_metadata": {
                    "id": [
                        "JOi"
                    ]
                }
            },
            "name": "mesh3"
        },
        {
            "mesh": 3,
            "name": "mesh3_meshnode_3"
        },
        {
            "children": [
                12
            ],
            "extensions": {
                "PTC_onshape_metadata": {
                    "id": [
                        "JJC"
                    ]
                }
            },
            "name": "mesh4"
        },
        {
            "mesh": 4,
            "name": "mesh4_meshnode_4"
        },
        {
            "children": [
                14
            ],
            "extensions": {
                "PTC_onshape_metadata": {
                    "id": [
                        "JOG"
                    ]
                }
            },
            "name": "mesh5"
        },
        {
            "mesh": 5,
            "name": "mesh5_meshnode_5"
        }
    ],
    "scene": 0,
    "scenes": [
        {
            "name": "Root",
            "nodes": [
                0
            ]
        }
    ]
}