{
    "accessors": [
        {
            "bufferView": 0,
            "componentType": 5125,
            "count": 3630,
            "max": [
                808.0
            ],
            "min": [
                0.0
            ],
            "name": "mesh0_idx_accessor",
            "type": "SCALAR"
        },
        {
            "bufferView": 1,
            "componentType": 5126,
            "count": 809,
            "max": [
                0.29944920539855957,
                2.5,
                0.01036278996616602
            ],
            "min": [
                -0.2994602620601654,
                5.03149275274722e-18,
                -0.03320058807730675
            ],
            "name": "mesh0_coord_accessor",
            "type": "VEC3"
        },
        {
            "bufferView": 2,
            "componentType": 5126,
            "count": 809,
            "max": [
                0.13875727355480194,
                0.04435688257217407,
                0.9999999403953552
            ],
            "min": [
                -0.13876141607761383,
                -0.266562283039093,
                0.9638177156448364
            ],
            "name": "mesh0_norm_accessor",
            "type": "VEC3"
        },
        {
            "bufferView": 3,
            "componentType": 5125,
            "count": 11244,
            "max": [
                2121.0
            ],
            "min": [
                0.0
            ],
            "name": "mesh1_idx_accessor",
            "type": "SCALAR"
        },
        {
            "bufferView": 4,
            "componentType": 5126,
            "count": 2122,
            "max": [
                0.0,
                2.502995729446411,
                0.009985069744288921
            ],
            "min": [
                -0.30894410610198975,
                -0.00995701178908348,
                -0.055800698697566986
            ],
            "name": "mesh1_coord_accessor",
            "type": "VEC3"
        },
        {
            "bufferView": 5,
            "componentType": 5126,
            "count": 2122,
            "max": [
                0.07359770685434341,
                0.7866989970207214,
                0.9999982714653015
            ],
            "min": [
                -0.9999918937683105,
                -0.9968549609184265,
                -0.9999799728393555
            ],
            "name": "mesh1_norm_accessor",
            "type": "VEC3"
        },
        {
            "bufferView": 6,
            "componentType": 5125,
            "count": 11163,
            "max": [
                2094.0
            ],
            "min": [
                0.0
            ],
            "name": "mesh2_idx_accessor",
            "type": "SCALAR"
        },
        {
            "bufferView": 7,
            "componentType": 5126,
            "count": 2095,
            "max": [
                0.30894410610198975,
                2.502995729446411,
                0.009985930286347866
            ],
            "min": [
                0.0,
                -0.00995701178908348,
                -0.05578870326280594
            ],
            "name": "mesh2_coord_accessor",
            "type": "VEC3"
        },
        {
            "bufferView": 8,
            "componentType": 5126,
            "count": 2095,
            "max": [
                0.9999918937683105,
                0.7866989970207214,
                0.9999982714653015
            ],
            "min": [
                -0.07359770685434341,
                -0.9968549609184265,
                -0.9999799728393555
            ],
            "name": "mesh2_norm_accessor",
            "type": "VEC3"
        },
        {
            "bufferView": 9,
            "componentType": 5125,
            "count": 2859,
            "max": [
                690.0
            ],
            "min": [
                0.0
            ],
            "name": "mesh3_idx_accessor",
            "type": "SCALAR"
        },
        {
            "bufferView": 10,
            "componentType": 5126,
            "count": 691,
            "max": [
                0.29944920539855957,
                2.5019850730895996,
                -0.00224934215657413
            ],
            "min": [
                -0.2994886338710785,
                -1.8290733510058305e-18,
                -0.055800698697566986
            ],
            "name": "mesh3_coord_accessor",
            "type": "VEC3"
        },
        {
            "bufferView": 11,
            "componentType": 5126,
            "count": 691,
            "max": [
                0.0740654468536377,
                0.28764498233795166,
                -0.9577370882034302
            ],
            "min": [
                -0.07406970858573914,
                -0.08010096102952957,
                -0.9999995827674866
            ],
            "name": "mesh3_norm_accessor",
            "type": "VEC3"
        },
        {
            "bufferView": 12,
            "componentType": 5125,
            "count": 131,
            "max": [
                130.0
            ],
            "min": [
                0.0
            ],
            "name": "mesh4_idx_accessor",
            "type": "SCALAR"
        },
        {
            "bufferView": 13,
            "componentType": 5126,
            "count": 131,
            "max": [
                -5.682263707920101e-30,
                2.5,
                0.0
            ],
            "min": [
                -0.30000022053718567,
                -7.943202891788188e-39,
                -0.04786251485347748
            ],
            "name": "mesh4_coord_accessor",
            "type": "VEC3"
        },
        {
            "bufferView": 14,
            "componentType": 5125,
            "count": 1,
            "max": [
                0.0
            ],
            "min": [
                0.0
            ],
            "name": "mesh5_idx_accessor",
            "type": "SCALAR"
        },
        {
            "bufferView": 15,
            "componentType": 5126,
            "count": 1,
            "max": [
                -8.859517950749203e-18,
                2.5,
                0.0
            ],
            "min": [
                -8.859517950749203e-18,
                2.5,
                0.0
            ],
            "name": "mesh5_coord_accessor",
            "type": "VEC3"
        },
        {
            "bufferView": 16,
            "componentType": 5125,
            "count": 1,
            "max": [
                0.0
            ],
            "min": [
                0.0
            ],
            "name": "mesh6_idx_accessor",
            "type": "SCALAR"
        },
        {
            "bufferView": 17,
            "componentType": 5126,
            "count": 1,
            "max": [
                -5.682263707920101e-30,
                -7.943202891788188e-39,
                0.0
            ],
            "min": [
                -5.682263707920101e-30,
                -7.943202891788188e-39,
                0.0
            ],
            "name": "mesh6_coord_accessor",
            "type": "VEC3"
        }
    ],
    "asset": {
        "version": "2.0"
    },
    "bufferViews": [
        {
            "buffer": 0,
            "byteLength": 14520,
            "name": "mesh0_idx_bufferView",
            "target": 34963
        },
        {
            "buffer": 1,
            "byteLength": 9708,
            "name": "mesh0_coord_bufferView",
            "target": 34962
        },
        {
            "buffer": 2,
            "byteLength": 9708,
            "name": "mesh0_norm_bufferView",
            "target": 34962
        },
        {
            "buffer": 3,
            "byteLength": 44976,
            "name": "mesh1_idx_bufferView",
            "target": 34963
        },
        {
            "buffer": 4,
            "byteLength": 25464,
            "name": "mesh1_coord_bufferView",
            "target": 34962
        },
        {
            "buffer": 5,
            "byteLength": 25464,
            "name": "mesh1_norm_bufferView",
            "target": 34962
        },
        {
            "buffer": 6,
            "byteLength": 44652,
            "name": "mesh2_idx_bufferView",
            "target": 34963
        },
        {
            "buffer": 7,
            "byteLength": 25140,
            "name": "mesh2_coord_bufferView",
            "target": 34962
        },
        {
            "buffer": 8,
            "byteLength": 25140,
            "name": "mesh2_norm_bufferView",
            "target": 34962
        },
        {
            "buffer": 9,
            "byteLength": 11436,
            "name": "mesh3_idx_bufferView",
            "target": 34963
        },
        {
            "buffer": 10,
            "byteLength": 8292,
            "name": "mesh3_coord_bufferView",
            "target": 34962
        },
        {
            "buffer": 11,
            "byteLength": 8292,
            "name": "mesh3_norm_bufferView",
            "target": 34962
        },
        {
            "buffer": 12,
            "byteLength": 524,
            "name": "mesh4_idx_bufferView",
            "target": 34963
        },
        {
            "buffer": 13,
            "byteLength": 1572,
            "name": "mesh4_coord_bufferView",
            "target": 34962
        },
        {
            "buffer": 14,
            "byteLength": 4,
            "name": "mesh5_idx_bufferView",
            "target": 34963
        },
        {
            "buffer": 15,
            "byteLength": 12,
            "name": "mesh5_coord_bufferView",
            "target": 34962
        },
        {
            "buffer": 16,
            "byteLength": 4,
            "name": "mesh6_idx_bufferView",
            "target": 34963
        },
        {
            "buffer": 17,
            "byteLength": 12,
            "name": "mesh6_coord_bufferView",
            "target": 34962
        }
    ],
    "buffers": [
        {
            "byteLength": 14520,
            "name": "mesh0_idx_buffer",
            "uri": "data:application/octet-stream;base64,"
        },
        {
            "byteLength": 9708,
            "name": "mesh0_coord_buffer",
            "uri": "data:application/octet-stream;base64,"
        },
        {
            "byteLength": 9708,
            "name": "mesh0_norm_buffer",
            "uri": "data:application/octet-stream;base64,"
        },
        {
            "byteLength": 44976,
            "name": "mesh1_idx_buffer",
            "uri": "data:application/octet-stream;base64,"
        },
        {
            "byteLength": 25464,
            "name": "mesh1_coord_buffer",
            "uri": "data:application/octet-stream;base64,"
        },
        {
            "byteLength": 25464,
            "name": "mesh1_norm_buffer",
            "uri": "data:application/octet-stream;base64,"
        },
        {
            "byteLength": 44652,
            "name": "mesh2_idx_buffer",
            "uri": "data:application/octet-stream;base64,"
        },
        {
            "byteLength": 25140,
            "name": "mesh2_coord_buffer",
            "uri": "data:application/octet-stream;base64,"
        },
        {
            "byteLength": 25140,
            "name": "mesh2_norm_buffer",
            "uri": "data:application/octet-stream;base64,"
        },
        {
            "byteLength": 11436,
            "name": "mesh3_idx_buffer",
            "uri": "data:application/octet-stream;base64,"
        },
        {
            "byteLength": 8292,
            "name": "mesh3_coord_buffer",
            "uri": "data:application/octet-stream;base64,"
        },
        {
            "byteLength": 8292,
            "name": "mesh3_norm_buffer",
            "uri": "data:application/octet-stream;base64,"
        },
        {
            "byteLength": 524,
            "name": "mesh4_idx_buffer",
            "uri": "data:application/octet-stream;base64,"
        },
        {
            "byteLength": 1572,
            "name": "mesh4_coord_buffer",
            "uri": "data:application/octet-stream;base64,"
        },
        {
            "byteLength": 4,
            "name": "mesh5_idx_buffer",
            "uri": "data:application/octet-stream;base64,"
        },
        {
            "byteLength": 12,
            "name": "mesh5_coord_buffer",
            "uri": "data:application/octet-stream;base64,"
        },
        {
            "byteLength": 4,
            "name": "mesh6_idx_buffer",
            "uri": "data:application/octet-stream;base64,"
        },
        {
            "byteLength": 12,
            "name": "mesh6_coord_buffer",
            "uri": "data:application/octet-stream;base64,"
        }
    ],
    "extensionsUsed": [
        "PTC_onshape_metadata"
    ],
    "materials": [
        {
            "doubleSided": true,
            "name": "0.141176_0.694118_0.650980_0.000000_0.000000",
            "pbrMetallicRoughness": {
                "baseColorFactor": [
                    0.1411764770746231,
                    0.6941176652908325,
                    0.6509804129600525,
                    1.0
                ],
                "metallicFactor": 0.0
            }
        },
        {
            "doubleSided": true,
            "name": "0.000000_0.000000_0.000000_0.000000_0.000000",
            "pbrMetallicRoughness": {
                "baseColorFactor": [
                    0.0,
                    0.0,
                    0.0,
                    1.0
                ],
                "metallicFactor": 0.0
            }
        }
    ],
    "meshes": [
        {
            "name": "mesh0_mesh",
            "primitives": [
                {
                    "attributes": {
                        "NORMAL": 2,
                        "POSITION": 1
                    },
                    "indices": 0,
                    "material": 0
                }
            ]
        },
        {
            "name": "mesh1_mesh",
            "primitives": [
                {
                    "attributes": {
                        "NORMAL": 5,
                        "POSITION": 4
                    },
                    "indices": 3,
                    "material": 0
                }
            ]
        },
        {
            "name": "mesh2_mesh",
            "primitives": [
                {
                    "attributes": {
                        "NORMAL": 8,
                        "POSITION": 7
                    },
                    "indices": 6,
                    "material": 0
                }
            ]
        },
        {
            "name": "mesh3_mesh",
            "primitives": [
                {
                    "attributes": {
                        "NORMAL": 11,
                        "POSITION": 10
                    },
                    "indices": 9,
                    "material": 0
                }
            ]
        },
        {
            "name": "mesh4_mesh",
            "primitives": [
                {
                    "attributes": {
                        "POSITION": 13
                    },
                    "indices": 12,
                    "material": 1,
                    "mode": 3
                }
            ]
        },
        {
            "name": "mesh5_mesh",
            "primitives": [
                {
                    "attributes": {
                        "POSITION": 15
                    },
                    "indices": 14,
                    "material": 1,
                    "mode": 0
                }
            ]
        },
        {
            "name": "mesh6_mesh",
            "primitives": [
                {
                    "attributes": {
                        "POSITION": 17
                    },
                    "indices": 16,
                    "material": 1,
                    "mode": 0
                }
            ]
        }
    ],
    "nodes": [
        {
            "children": [
                1,
                3,
                5,
                7
            ],
            "extensions": {
                "PTC_onshape_metadata": {
                    "id": [
                        "JOD"
                    ]
                }
            },
            "name": "Part 1"
        },
        {
            "children": [
                2
            ],
            "extensions": {
                "PTC_onshape_metadata": {
                    "id": [
                        "JTK"
                    ]
                }
            },
            "name": "mesh0"
        },
        {
            "mesh": 0,
            "name": "mesh0_meshnode_0"
        },
        {
            "children": [
                4
            ],
            "extensions": {
                "PTC_onshape_metadata": {
                    "id": [
                        "JVC"
                    ]
                }
            },
            "name": "mesh1"
        },
        {
            "mesh": 1,
            "name": "mesh1_meshnode_1"
        },
        {
            "children": [
                6
            ],
            "extensions": {
                "PTC_onshape_metadata": {
                    "id": [
                        "JVG"
                    ]
                }
            },
            "name": "mesh2"
        },
        {
            "mesh": 2,
            "name": "mesh2_meshnode_2"
        },
        {
            "children": [
                8
            ],
            "extensions": {
                "PTC_onshape_metadata": {
                    "id": [
                        "JVK"
                    ]
                }
            },
            "name": "mesh3"
        },
        {
            "mesh": 3,
            "name": "mesh3_meshnode_3"
        },
        {
            "children": [
                10,
                12,
                14
            ],
            "extensions": {
                "PTC_onshape_metadata": {
                    "id": [
                        "JMD"
                    ]
                }
            },
            "name": "Curve 1"
        },
        {
            "children": [
                11
            ],
            "name": "mesh4"
        },
        {
            "mesh": 4,
            "name": "mesh4_meshnode_4"
        },
        {
            "children": [
                13
            ],
            "name": "mesh5"
        },
        {
            "mesh": 5,
            "name": "mesh5_meshnode_5"
        },
        {
            "children": [
                15
            ],
            "name": "mesh6"
        },
        {
            "mesh": 6,
            "name": "mesh6_meshnode_6"
        }
    ],
    "scene": 0,
    "scenes": [
        {
            "name": "Root",
            "nodes": [
                0,
                9
            ]
        }
    ]
}